<?xml version="1.0" encoding="utf-8"?>
<!-- Generator: Adobe Illustrator 16.0.0, SVG Export Plug-In . SVG Version: 6.00 Build 0)  -->
<!DOCTYPE svg PUBLIC "-//W3C//DTD SVG 1.1//EN" "http://www.w3.org/Graphics/SVG/1.1/DTD/svg11.dtd">
<svg version="1.1" id="Layer_1" xmlns="http://www.w3.org/2000/svg" xmlns:xlink="http://www.w3.org/1999/xlink" x="0px" y="0px"
	 width="195px" height="202px" viewBox="0 0 195 202" enable-background="new 0 0 195 202" xml:space="preserve">
<polygon fill="#956E46" points="0.478,45.662 0.478,154.903 97.978,201.028 97.978,91.181 "/>
<polygon fill="#A97C50" points="195,45.634 195,154.875 97.5,201 97.5,91.152 "/>
<polygon fill="#C49A6C" points="0,45.634 97.5,91.152 195,45.634 97.5,0.002 "/>
<polygon fill="#603913" points="97.978,-0.026 94.777,45.548 97.978,45.548 101.637,45.548 "/>
<polygon fill="#603913" points="97.978,91.181 94.777,45.605 97.978,45.605 101.637,45.605 "/>
<polygon fill="#603913" points="195,45.816 97.562,49.17 97.562,45.816 97.562,41.984 "/>
<polygon fill="#603913" points="0,45.816 97.438,49.17 97.438,45.816 97.438,41.984 "/>
</svg>
