<?xml version="1.0" encoding="utf-8"?>
<!-- Generator: Adobe Illustrator 16.0.0, SVG Export Plug-In . SVG Version: 6.00 Build 0)  -->
<!DOCTYPE svg PUBLIC "-//W3C//DTD SVG 1.1//EN" "http://www.w3.org/Graphics/SVG/1.1/DTD/svg11.dtd">
<svg version="1.1" id="Layer_2" xmlns="http://www.w3.org/2000/svg" xmlns:xlink="http://www.w3.org/1999/xlink" x="0px" y="0px"
	 width="1920px" height="1080px" viewBox="0 0 1920 1080" enable-background="new 0 0 1920 1080" xml:space="preserve">
<rect x="425.868" y="550.59" fill="#182D56" width="19.656" height="41.997"/>
<line fill="#182D56" stroke="#182D56" stroke-width="12" stroke-miterlimit="10" x1="660.514" y1="413.789" x2="733.75" y2="413.752"/>
<line fill="#182D56" stroke="#182D56" stroke-width="12" stroke-miterlimit="10" x1="446.524" y1="413.789" x2="373.288" y2="413.752"/>
<rect x="661.514" y="382.05" fill="#182D56" width="257.969" height="17.5"/>
<rect x="184.822" y="382.05" fill="#182D56" width="260.703" height="17.5"/>
<rect x="67.264" y="216.353" fill="#6D6E71" width="254.987" height="9.501"/>
<rect x="782.053" y="211.602" fill="#6D6E71" width="254.988" height="9.501"/>
<rect x="184.822" y="214.603" fill="#3F669E" width="19.872" height="153.448"/>
<rect x="899.611" y="214.603" fill="#3F669E" width="19.872" height="153.448"/>
<g>
	<path fill="#64A1D7" d="M194.758,354.552c33.352,0,60.389,20.146,60.389,44.998H134.369
		C134.369,374.698,161.406,354.552,194.758,354.552z"/>
</g>
<g>
	<path fill="#64A1D7" d="M909.547,354.552c33.352,0,60.389,20.146,60.389,44.998H849.158
		C849.158,374.698,876.195,354.552,909.547,354.552z"/>
</g>
<rect x="503.519" y="426.459" fill="#355A8C" width="100" height="44.497"/>
<rect x="445.524" y="399.55" fill="#5275BA" width="215.989" height="29.909"/>
<g>
	<path fill="#64A1D7" d="M551.269,309.554c69.584,0,125.994,40.292,125.994,89.996H425.275
		C425.275,349.847,481.685,309.554,551.269,309.554z"/>
</g>
<ellipse fill="#64A1D7" cx="193.307" cy="221.103" rx="24.282" ry="23.25"/>
<ellipse fill="#64A1D7" cx="909.547" cy="214.603" rx="24.282" ry="23.25"/>
<line fill="#182D56" stroke="#182D56" stroke-width="12" stroke-miterlimit="10" x1="727.97" y1="408.536" x2="728.097" y2="655.582"/>
<line fill="#182D56" stroke="#182D56" stroke-width="12" stroke-miterlimit="10" x1="379.068" y1="408.504" x2="378.98" y2="655.55"/>
<rect x="418.119" y="448.707" fill="#64A1D7" width="136.4" height="22.249"/>
<rect x="553.644" y="448.707" fill="#64A1D7" width="136.4" height="22.249"/>
<rect x="418.119" y="448.707" fill="#64A1D7" width="15.499" height="143.88"/>
<rect x="663.56" y="550.59" fill="#182D56" width="19.656" height="41.997"/>
<rect x="675.467" y="448.707" fill="#64A1D7" width="15.499" height="143.88"/>
</svg>
