<?xml version="1.0" encoding="utf-8"?>
<!-- Generator: Adobe Illustrator 16.0.0, SVG Export Plug-In . SVG Version: 6.00 Build 0)  -->
<!DOCTYPE svg PUBLIC "-//W3C//DTD SVG 1.1//EN" "http://www.w3.org/Graphics/SVG/1.1/DTD/svg11.dtd">
<svg version="1.1" id="Layer_1" xmlns="http://www.w3.org/2000/svg" xmlns:xlink="http://www.w3.org/1999/xlink" x="0px" y="0px"
	 width="1px" height="1px" viewBox="0 0 1 1" enable-background="new 0 0 1 1" xml:space="preserve">
<rect x="-126.056" y="127.05" fill="#182D56" width="19.656" height="41.997"/>
<line fill="#182D56" stroke="#182D56" stroke-width="12" stroke-miterlimit="10" x1="108.59" y1="-9.751" x2="181.826" y2="-9.788"/>
<line fill="#182D56" stroke="#182D56" stroke-width="12" stroke-miterlimit="10" x1="-105.399" y1="-9.751" x2="-178.636" y2="-9.788"/>
<rect x="109.59" y="-41.49" fill="#182D56" width="257.969" height="17.5"/>
<rect x="-367.102" y="-41.49" fill="#182D56" width="260.703" height="17.5"/>
<rect x="-484.66" y="-207.188" fill="#6D6E71" width="254.987" height="9.501"/>
<rect x="230.129" y="-211.938" fill="#6D6E71" width="254.988" height="9.501"/>
<rect x="-367.102" y="-208.937" fill="#3F669E" width="19.872" height="153.448"/>
<rect x="347.688" y="-208.937" fill="#3F669E" width="19.871" height="153.448"/>
<g>
	<path fill="#64A1D7" d="M-357.166-68.988c33.352,0,60.389,20.146,60.389,44.998h-120.777
		C-417.555-48.842-390.518-68.988-357.166-68.988z"/>
</g>
<g>
	<path fill="#64A1D7" d="M357.623-68.988c33.352,0,60.389,20.146,60.389,44.998H297.234
		C297.234-48.842,324.271-68.988,357.623-68.988z"/>
</g>
<rect x="-48.405" y="2.919" fill="#355A8C" width="100" height="44.497"/>
<rect x="-106.399" y="-23.99" fill="#5275BA" width="215.989" height="29.909"/>
<g>
	<path fill="#64A1D7" d="M-0.655-113.986c69.584,0,125.994,40.292,125.994,89.996h-251.987
		C-126.648-73.693-70.239-113.986-0.655-113.986z"/>
</g>
<ellipse fill="#64A1D7" cx="-358.617" cy="-202.437" rx="24.282" ry="23.25"/>
<ellipse fill="#64A1D7" cx="357.623" cy="-208.937" rx="24.282" ry="23.25"/>
<line fill="#182D56" stroke="#182D56" stroke-width="12" stroke-miterlimit="10" x1="176.046" y1="-15.004" x2="176.173" y2="232.042"/>
<line fill="#182D56" stroke="#182D56" stroke-width="12" stroke-miterlimit="10" x1="-172.855" y1="-15.036" x2="-172.943" y2="232.01"/>
<rect x="-133.805" y="25.167" fill="#64A1D7" width="136.401" height="22.249"/>
<rect x="1.721" y="25.167" fill="#64A1D7" width="136.4" height="22.249"/>
<rect x="-133.805" y="25.167" fill="#64A1D7" width="15.499" height="143.88"/>
<rect x="111.637" y="127.05" fill="#182D56" width="19.656" height="41.997"/>
<rect x="123.543" y="25.167" fill="#64A1D7" width="15.499" height="143.88"/>
</svg>
