<?xml version="1.0" encoding="utf-8"?>
<!-- Generator: Adobe Illustrator 16.0.0, SVG Export Plug-In . SVG Version: 6.00 Build 0)  -->
<!DOCTYPE svg PUBLIC "-//W3C//DTD SVG 1.1//EN" "http://www.w3.org/Graphics/SVG/1.1/DTD/svg11.dtd">
<svg version="1.1" id="Layer_1" xmlns="http://www.w3.org/2000/svg" xmlns:xlink="http://www.w3.org/1999/xlink" x="0px" y="0px"
	 width="970px" height="465px" viewBox="0 0 970 465" enable-background="new 0 0 970 465" xml:space="preserve">
<rect x="358.944" y="361.05" fill="#182D56" width="19.656" height="41.997"/>
<line fill="#182D56" stroke="#182D56" stroke-width="12" stroke-miterlimit="10" x1="593.59" y1="224.249" x2="666.826" y2="224.212"/>
<line fill="#182D56" stroke="#182D56" stroke-width="12" stroke-miterlimit="10" x1="379.601" y1="224.249" x2="306.364" y2="224.212"/>
<rect x="594.59" y="192.51" fill="#182D56" width="257.969" height="17.5"/>
<rect x="117.898" y="192.51" fill="#182D56" width="260.703" height="17.5"/>
<rect x="0.34" y="26.812" fill="#6D6E71" width="254.987" height="9.501"/>
<rect x="715.129" y="26.812" fill="#6D6E71" width="254.988" height="9.501"/>
<rect x="117.898" y="25.063" fill="#3F669E" width="19.872" height="153.448"/>
<rect x="832.688" y="43.29" fill="#3F669E" width="19.871" height="153.448"/>
<g>
	<path fill="#64A1D7" d="M127.834,165.012c33.352,0,60.389,20.146,60.389,44.998H67.445
		C67.445,185.158,94.482,165.012,127.834,165.012z"/>
</g>
<g>
	<path fill="#64A1D7" d="M842.623,165.012c33.352,0,60.389,20.146,60.389,44.998H782.234
		C782.234,185.158,809.271,165.012,842.623,165.012z"/>
</g>
<rect x="436.595" y="236.919" fill="#355A8C" width="100" height="44.497"/>
<rect x="378.601" y="210.01" fill="#5275BA" width="215.989" height="29.909"/>
<g>
	<path fill="#64A1D7" d="M484.345,120.014c69.584,0,125.994,40.292,125.994,89.996H358.352
		C358.352,160.307,414.761,120.014,484.345,120.014z"/>
</g>
<ellipse fill="#64A1D7" cx="126.383" cy="31.563" rx="24.282" ry="23.25"/>
<ellipse fill="#64A1D7" cx="842.623" cy="31.563" rx="24.282" ry="23.25"/>
<line fill="#182D56" stroke="#182D56" stroke-width="12" stroke-miterlimit="10" x1="661.046" y1="218.996" x2="661.173" y2="466.042"/>
<line fill="#182D56" stroke="#182D56" stroke-width="12" stroke-miterlimit="10" x1="312.145" y1="218.964" x2="312.057" y2="466.01"/>
<rect x="351.195" y="259.167" fill="#64A1D7" width="136.401" height="22.249"/>
<rect x="486.721" y="259.167" fill="#64A1D7" width="136.4" height="22.249"/>
<rect x="351.195" y="259.167" fill="#64A1D7" width="15.499" height="143.88"/>
<rect x="596.637" y="361.05" fill="#182D56" width="19.656" height="41.997"/>
<rect x="608.543" y="259.167" fill="#64A1D7" width="15.499" height="143.88"/>
</svg>
