<?xml version="1.0" encoding="UTF-8"?>
<!DOCTYPE svg PUBLIC "-//W3C//DTD SVG 1.1//EN" "http://www.w3.org/Graphics/SVG/1.1/DTD/svg11.dtd">
<svg enable-background="new 0 0 1280 720" viewBox="0 0 1280 720" xml:space="preserve" xmlns="http://www.w3.org/2000/svg"><defs><radialGradient cx="178.1157" cy="129.1016" gradientUnits="userSpaceOnUse" id="SVGID_1_" r="532.8616">
		<stop offset="0" stop-color="#fff"></stop>
		<stop offset=".3596" stop-color="#9fd4fa"></stop>
		<stop offset=".8775" stop-color="#93d2fe"></stop>
		<stop offset="1" stop-color="#8fd2ff"></stop>
	</radialGradient></defs>
<g id="Sky">
	<path d="m1,0h1280v720h-1280z" fill="#7ccce8"></path>
</g>

<g id="Ground">
	<path d="m1309.059,548.64h-1308.295c0,0-.764-17.558.236-79.055 774.47-13.5 701.233-318.723 1308.295-77.996 1.963,25.499-.236,157.051-.236,157.051z" fill="#397243"></path>
	<path d="m1290.211,753.07h-1314.808c0,0-.778-358.482.222-419.979 423.275-177.478 711.031,157.493 1314.808,208.49-1,149.043-.222,211.489-.222,211.489z" fill="#3b8c4b"></path>
</g>
<g id="Clouds">
	
		<path d="m493.789,71.489a35.248,26.623 0 1,0 -70.496,0 35.248,26.623 0 1,0 70.496,0" fill="#fff" stroke="#a1c9e2"></path>
		<path d="m538.295,65.115a35.248,26.623 0 1,0 -70.496,0 35.248,26.623 0 1,0 70.496,0" fill="#fff" stroke="#a1c9e2"></path>
		<path d="m622.033,91.738a128.244,33.748 0 1,0 -256.488,0 128.244,33.748 0 1,0 256.488,0" fill="#fff"></path>
		<path d="m577.543,74.489a35.248,26.623 0 1,0 -70.496,0 35.248,26.623 0 1,0 70.496,0" fill="#fff" stroke="#a1c9e2"></path>
		<path d="m629.941,84.614a35.248,26.623 0 1,0 -70.496,0 35.248,26.623 0 1,0 70.496,0" fill="#fff" stroke="#a1c9e2"></path>
		<path d="m436.041,74.489a35.248,26.623 0 1,0 -70.496,0 35.248,26.623 0 1,0 70.496,0" fill="#fff" stroke="#a1c9e2"></path>
		<path d="m410.299,94.25a35.248,26.623 0 1,0 -70.496,0 35.248,26.623 0 1,0 70.496,0" fill="#fff" stroke="#a1c9e2"></path>
		<path d="m458.54,111.236a35.248,26.623 0 1,0 -70.496,0 35.248,26.623 0 1,0 70.496,0" fill="#fff" stroke="#a1c9e2"></path>
		<path d="m509.545,115.863a35.248,26.623 0 1,0 -70.496,0 35.248,26.623 0 1,0 70.496,0" fill="#fff" stroke="#a1c9e2"></path>
		<path d="m573.543,111.237a35.248,26.623 0 1,0 -70.496,0 35.248,26.623 0 1,0 70.496,0" fill="#fff" stroke="#a1c9e2"></path>
		<path d="m608.792,111.236a35.248,26.623 0 1,0 -70.496,0 35.248,26.623 0 1,0 70.496,0" fill="#fff" stroke="#a1c9e2"></path>
		<path d="m617.033,91.25a128.244,33.748 0 1,0 -256.488,0 128.244,33.748 0 1,0 256.488,0" fill="#fff"></path>
	
	
		<path d="m867.798,146.747a35.249,26.623 0 1,0 -70.498,0 35.249,26.623 0 1,0 70.498,0" fill="#fff" stroke="#a1c9e2"></path>
		<path d="m912.304,140.373a35.249,26.623 0 1,0 -70.498,0 35.249,26.623 0 1,0 70.498,0" fill="#fff" stroke="#a1c9e2"></path>
		<path d="m996.042,166.996a128.244,33.748 0 1,0 -256.488,0 128.244,33.748 0 1,0 256.488,0" fill="#fff"></path>
		<path d="m951.552,149.747a35.249,26.623 0 1,0 -70.498,0 35.249,26.623 0 1,0 70.498,0" fill="#fff" stroke="#a1c9e2"></path>
		<path d="m1003.951,159.872a35.249,26.623 0 1,0 -70.498,0 35.249,26.623 0 1,0 70.498,0" fill="#fff" stroke="#a1c9e2"></path>
		<path d="m810.05,149.747a35.248,26.623 0 1,0 -70.496,0 35.248,26.623 0 1,0 70.496,0" fill="#fff" stroke="#a1c9e2"></path>
		<path d="m784.308,169.507a35.249,26.623 0 1,0 -70.498,0 35.249,26.623 0 1,0 70.498,0" fill="#fff" stroke="#a1c9e2"></path>
		<path d="m832.549,186.494a35.249,26.623 0 1,0 -70.498,0 35.249,26.623 0 1,0 70.498,0" fill="#fff" stroke="#a1c9e2"></path>
		<path d="m883.554,191.121a35.249,26.623 0 1,0 -70.498,0 35.249,26.623 0 1,0 70.498,0" fill="#fff" stroke="#a1c9e2"></path>
		<path d="m947.552,186.495a35.248,26.623 0 1,0 -70.496,0 35.248,26.623 0 1,0 70.496,0" fill="#fff" stroke="#a1c9e2"></path>
		<path d="m982.8,186.494a35.248,26.623 0 1,0 -70.496,0 35.248,26.623 0 1,0 70.496,0" fill="#fff" stroke="#a1c9e2"></path>
		<path d="m991.042,166.507a128.244,33.748 0 1,0 -256.488,0 128.244,33.748 0 1,0 256.488,0" fill="#fff"></path>
	
	
		<path d="m1202.52,62.616a35.248,26.623 0 1,0 -70.496,0 35.248,26.623 0 1,0 70.496,0" fill="#fff" stroke="#a1c9e2"></path>
		<path d="m1247.026,56.242a35.248,26.623 0 1,0 -70.496,0 35.248,26.623 0 1,0 70.496,0" fill="#fff" stroke="#a1c9e2"></path>
		<path d="m1330.765,82.865a128.244,33.748 0 1,0 -256.488,0 128.244,33.748 0 1,0 256.488,0" fill="#fff"></path>
		<path d="m1286.274,65.616a35.248,26.623 0 1,0 -70.496,0 35.248,26.623 0 1,0 70.496,0" fill="#fff" stroke="#a1c9e2"></path>
		<path d="m1338.673,75.741a35.248,26.623 0 1,0 -70.496,0 35.248,26.623 0 1,0 70.496,0" fill="#fff" stroke="#a1c9e2"></path>
		<path d="m1144.772,65.616a35.248,26.623 0 1,0 -70.496,0 35.248,26.623 0 1,0 70.496,0" fill="#fff" stroke="#a1c9e2"></path>
		<path d="m1119.03,85.376a35.248,26.623 0 1,0 -70.496,0 35.248,26.623 0 1,0 70.496,0" fill="#fff" stroke="#a1c9e2"></path>
		<path d="m1167.273,102.363a35.249,26.623 0 1,0 -70.498,0 35.249,26.623 0 1,0 70.498,0" fill="#fff" stroke="#a1c9e2"></path>
		<path d="m1218.276,106.99a35.248,26.623 0 1,0 -70.496,0 35.248,26.623 0 1,0 70.496,0" fill="#fff" stroke="#a1c9e2"></path>
		<path d="m1282.274,102.364a35.248,26.623 0 1,0 -70.496,0 35.248,26.623 0 1,0 70.496,0" fill="#fff" stroke="#a1c9e2"></path>
		<path d="m1317.524,102.363a35.249,26.623 0 1,0 -70.498,0 35.249,26.623 0 1,0 70.498,0" fill="#fff" stroke="#a1c9e2"></path>
		<path d="m1325.765,80.376a128.244,33.748 0 1,0 -256.488,0 128.244,33.748 0 1,0 256.488,0" fill="#fff"></path>
	
</g>
<g id="Sun">
	
		<path d="m261.705,125.603a85.495,85.495 0 1,0 -170.99,0 85.495,85.495 0 1,0 170.99,0" fill="#f4b71e"></path>
		<path d="m240.207,125.103a62.997,62.997 0 1,0 -125.994,0 62.997,62.997 0 1,0 125.994,0" fill="#f28420"></path>
	
</g>
</svg>
